<svg xmlns="http://www.w3.org/2000/svg" viewBox="0 0 32 32" fill="currentColor">
  <path fill-rule="evenodd" d="
    M16 28
    C10 28 6 24 6 18
    L6 14
    C6 10 8 7 10 6
    L7 1
    C7 0.4 7.5 0 8 0.2
    L12 4
    C13.2 3.4 14.6 3 16 3
    C17.4 3 18.8 3.4 20 4
    L24 0.2
    C24.5 0 25 0.4 25 1
    L22 6
    C24 7 26 10 26 14
    L26 18
    C26 24 22 28 16 28
    Z
    M11 13
    C9.8 13 9 14 9 15.5
    C9 17 10.2 18 11 18
    C12.5 18 13.5 17 13.5 15.5
    C13.5 14 12.5 13 11 13
    Z
    M21 13
    C19.5 13 18.5 14 18.5 15.5
    C18.5 17 19.5 18 21 18
    C21.8 18 23 17 23 15.5
    C23 14 22.2 13 21 13
    Z
  "/>
</svg>
